<svg width="20" height="20" viewBox="0 0 20 20" fill="none" xmlns="http://www.w3.org/2000/svg">
<g clip-path="url(#clip0_1_316)">
<path d="M10 19.999C15.5228 19.999 20 15.5219 20 9.99902C20 4.47618 15.5228 -0.000976562 10 -0.000976562C4.47715 -0.000976562 0 4.47618 0 9.99902C0 15.5219 4.47715 19.999 10 19.999Z" fill="white"/>
<path d="M15.9749 10.8045V14.9273H13.5846V11.0808C13.5846 10.115 13.2395 9.45542 12.3741 9.45542C11.7136 9.45542 11.3213 9.89946 11.148 10.3294C11.0851 10.4831 11.0689 10.6965 11.0689 10.912V14.9271H8.67839C8.67839 14.9271 8.71048 8.41242 8.67839 7.73807H11.069V8.75682C11.0642 8.76484 11.0574 8.77269 11.0532 8.78035H11.069V8.75682C11.3867 8.26803 11.9532 7.56926 13.2233 7.56926C14.7959 7.56926 15.9749 8.59674 15.9749 10.8045ZM6.17777 4.27271C5.36009 4.27271 4.82513 4.80944 4.82513 5.51464C4.82513 6.20486 5.34458 6.75711 6.14639 6.75711H6.1619C6.99562 6.75711 7.514 6.20486 7.514 5.51464C7.49814 4.80944 6.99562 4.27271 6.17777 4.27271ZM4.96721 14.9273H7.35678V7.73807H4.96721V14.9273Z" fill="#FBAF43"/>
</g>
<defs>
<clipPath id="clip0_1_316">
<rect width="20" height="20" fill="white"/>
</clipPath>
</defs>
</svg>
