<svg width="20" height="20" viewBox="0 0 20 20" fill="none" xmlns="http://www.w3.org/2000/svg">
<path d="M10 20C15.5228 20 20 15.5228 20 10C20 4.47715 15.5228 0 10 0C4.47715 0 0 4.47715 0 10C0 15.5228 4.47715 20 10 20Z" fill="white"/>
<path fill-rule="evenodd" clip-rule="evenodd" d="M4.52661 9.89422C7.4418 8.6241 9.38575 7.78676 10.3584 7.38223C13.1355 6.22715 13.7125 6.02649 14.0886 6.01984C14.1714 6.0184 14.3563 6.03891 14.4761 6.13613C14.6539 6.28035 14.6549 6.5934 14.6352 6.80059C14.4847 8.38184 13.8335 12.2191 13.5022 13.9901C13.362 14.7395 13.086 14.9907 12.8188 15.0153C12.2381 15.0688 11.7971 14.6315 11.2347 14.2629C10.3545 13.6859 9.85731 13.3268 9.00298 12.7638C8.01567 12.1132 8.65571 11.7556 9.21837 11.1712C9.36563 11.0182 11.9243 8.69094 11.9738 8.47981C11.98 8.4534 11.9858 8.35496 11.9273 8.30301C11.8688 8.25106 11.7825 8.26879 11.7202 8.28293C11.632 8.30297 10.2259 9.23231 7.50219 11.0709C7.10309 11.345 6.74161 11.4785 6.41774 11.4715C6.06067 11.4638 5.37387 11.2696 4.86329 11.1036C4.23704 10.9001 3.7393 10.7924 3.78266 10.4467C3.80524 10.2666 4.05321 10.0825 4.52661 9.89422V9.89422Z" fill="#FBAF43"/>
</svg>
